<svg xmlns="http://www.w3.org/2000/svg" version="1.1" xmlns:xlink="http://www.w3.org/1999/xlink" xmlns:svgjs="http://svgjs.dev/svgjs" width="200" height="200"><svg id="SvgjsSvg1072" xmlns="http://www.w3.org/2000/svg" viewBox="0 0 200 200"><defs><style>.cls-1{fill:#83c6e0;}.cls-2{fill:#f4f051;}</style></defs><circle class="cls-2" cx="84.84" cy="100" r="82.4"></circle><path class="cls-1" d="M114.14,101.37c.32,1.36.88,8.74,1.72,8.93l38.39-.03c2.47.5,4.93,1.9,6.1,4.22l16.2,34.68c4.86-.37,11.56-8.6,15.91-3.49.85,1,4.72,8.81,4.96,10.07.49,2.55-.23,3.89-2.29,5.27-3.51,2.35-14.4,7.72-18.44,9.23-4.79,1.79-8.59,1.02-11.82-3.07l-18.36-38.38-40.53-.27c-3.41-.61-5.91-2.75-7.19-5.94-2.69-19.04-6.13-38.07-8.5-57.15-.71-5.72-1.82-10.36.32-15.97,5.16-13.52,24.32-15.46,32.18-3.4,7.28,11.16.87,26.48-12.4,28.11l1.47,8.84,36.3.04c6.24-.47,5.74,12.58,4.06,15.83-.26.49-1.97,2.49-2.2,2.49h-35.87Z"></path><path class="cls-1" d="M133.88,137.05c1.85.18,5.87-.62,7.26.39,1.47,1.06,5.47,12.65,7.11,14.88-14.77,35.55-63.61,40.82-86.08,9.22-18.69-26.29-7.43-63.6,22.42-75.18l2.75,18.91c-18.77,11.74-21.56,39.5-2.9,52.76,19.41,13.79,46.01,2.37,49.44-20.98Z"></path></svg><style>@media (prefers-color-scheme: light) { :root { filter: none; } }
@media (prefers-color-scheme: dark) { :root { filter: none; } }
</style></svg>